<svg width="386" height="587" viewBox="0 0 386 587" fill="none" xmlns="http://www.w3.org/2000/svg">
<path d="M183.752 34.707C91.0151 -3.45544 -75.5742 -34.2029 -68.5954 84.892C-67.1738 109.075 -55.1008 131.556 -44.0054 153.524C-26.1324 188.794 -13.1856 229.847 -31.664 266.807C-52.1645 307.864 -91.8907 329.576 -95.6667 378.052C-106.626 518.311 122.513 630.222 245.477 569.201C281.457 551.362 309.622 520.428 324.059 484.481C344.473 433.742 360.646 381.551 377.849 329.764C414.581 219.454 317.043 112.87 225.665 55.4804C215.169 48.8808 200.7 41.6514 183.713 34.69L183.752 34.707Z" fill="#FE6936"/>
</svg>
