<svg width="81" height="539" viewBox="0 0 81 539" fill="none" xmlns="http://www.w3.org/2000/svg">
<path d="M274.342 33.579C181.286 -2.64447 14.6504 -33.1123 23.2757 75.9887C25.0317 98.1421 37.3908 118.887 48.7673 139.148C67.0917 171.68 80.5818 209.434 62.6618 243.005C42.7817 280.296 3.44994 299.614 0.359363 343.93C-8.61625 472.152 221.557 577.779 343.387 523.645C379.035 507.82 406.704 479.901 420.605 447.201C440.265 401.046 455.672 353.503 472.112 306.345C507.219 205.894 408.418 106.98 316.449 53.1773C305.884 46.9904 291.348 40.1716 274.303 33.5629L274.342 33.579Z" fill="#FE6936"/>
</svg>
