<svg width="28" height="32" viewBox="0 0 28 32" fill="none" xmlns="http://www.w3.org/2000/svg">
<path d="M14.4748 11.9426C13.715 11.9426 13.175 12.2559 13.175 12.7174V18.9994C13.175 19.395 13.715 19.7911 14.4748 19.7911C15.2345 19.7911 15.7912 19.3955 15.7912 18.9994V12.7174C15.7912 12.2559 15.2005 11.9426 14.4748 11.9426Z" fill="white"/>
<path d="M14.4911 7.58228C13.7527 7.58228 13.175 8.1863 13.175 8.88097C13.175 9.57563 13.7527 10.1984 14.4911 10.1984C15.2295 10.1984 15.7912 9.57628 15.7912 8.88097C15.7912 8.18566 15.213 7.58228 14.4911 7.58228Z" fill="white"/>
<path d="M14.4831 0.605957C7.01202 0.605957 0.966309 6.63641 0.966309 14.0876C0.966309 20.172 4.98019 25.2244 10.3925 26.9401L13.4663 31.4622C13.6949 31.7988 14.0758 31.9999 14.4831 31.9999C14.8905 31.9999 15.2714 31.7982 15.5 31.4622L18.5738 26.9401C23.9879 25.2232 28 20.1695 28 14.0876C28 6.63151 21.9494 0.605957 14.4831 0.605957ZM17.4716 24.7094C17.192 24.7873 16.9487 24.962 16.7853 25.2018L14.4825 28.5889L12.1798 25.2018C12.0163 24.962 11.7736 24.7873 11.4935 24.7094C6.88668 23.4242 3.4233 19.1958 3.4233 14.0876C3.4233 8.00622 8.38459 3.05861 14.4825 3.05861C20.5805 3.05861 25.5418 8.00622 25.5418 14.0876C25.5418 19.2007 22.0728 23.4248 17.471 24.7094H17.4716Z" fill="white"/>
</svg>
