<svg id="Layer_1" enable-background="new 0 0 68 68" height="512" viewBox="0 0 68 68" width="512" xmlns="http://www.w3.org/2000/svg"><g><g><path d="m62.2106 4.9966v58c0 1.6569-1.3431 3-3 3h-45c-1.6569 0-3-1.3431-3-3v-47.2l13.79-13.8h34.21c1.6569 0 3 1.3432 3 3z" fill="#fff"/></g><g><path d="m62.2089 4.9966v58c0 1.66-1.34 3-3 3h-45c-1.66 0-3-1.34-3-3v-3.1l.16.09c55.07 1.62 38.42-57.99 38.42-57.99h9.42c1.66 0 3 1.3401 3 3z" fill="#dee1e6"/></g><path d="m25.0006 1.9966v11.8c0 1.1046-.8954 2-2 2h-11.79z" fill="#dee1e6"/><g><path d="m44.8071 34.2667v17c0 1.1-.89 2-2 2h-34.02c-1.66 0-3-1.34-3-3v-20.51l.05.02c.1.62.4 1.18.83 1.61.54.54 1.29.88 2.12.88h34.02c1.11 0 2 .8899 2 2z" fill="#ff7e7e"/></g><g><path d="m44.8089 34.2667v17c0 1.1-.89 2-2 2h-34.03c-1.65 0-3-1.34-3-3v-1.65c33.45 2.4 34.87-16.35 34.87-16.35h2.16c1.11 0 2 .8899 2 2z" fill="#ef3d3d"/></g><g><path d="m11.2071 26.2466v6.02h-2.42c-.83 0-1.58-.34-2.12-.88-.54-.55-.88-1.3-.88-2.13 0-1.66 1.34-3.01 3-3.01z" fill="#ef3d3d"/><path d="m59.215 1.0003h-34.21c-.26-.01-.52.09-.71.29l-13.79 13.8c-.19.19-.29.45-.29.71v9.45h-1.43c-2.2 0-4 1.8-4 4.01v21c0 2.21 1.79 4 4 4h1.43v8.74c0 2.2 1.79 4 4 4h45c2.2 0 4-1.8 4-4v-58c0-2.2099-1.8001-4-4-4zm-35.21 3.4101v9.39c0 .55-.45 1-1 1h-9.38zm-15.22 22.8399h1.42c0 .1883 0 4.1904 0 4.02h-1.42c-1.3585 0-2.1814-1.3798-1.9901-2.15.0701-1.05.9401-1.87 1.9901-1.87zm0 25.0101c-1.11 0-2-.89-2-2v-17.54c.6.36 1.29.55 2 .55 50.5037-.0149 24.9437-.0071 34.03-.01.55 0 1 .45 1 1v17c0 .56-.45 1-1 1-8.6884 0-25.3766 0-34.03 0zm52.43 10.7399c0 1.1-.9 2-2 2h-45c-1.11 0-2-.9-2-2v-8.74h30.6c1.65 0 3-1.34 3-3v-17c0-1.65-1.35-3-3-3h-30.6v-14.46h10.79c1.65 0 3-1.35 3-3v-10.8h33.21c1.1 0 2 .89 2 2z"/></g><g><g><path d="m19.899 41.4423c0 2.2228-1.4225 2.9399-3.6362 2.9399h-1.4878v2.46h-1.416v-8.3882h2.8799c2.243.0001 3.6601.7273 3.6601 2.9883zm-1.4521-.1142c0-1.3037-.9184-1.5898-2.2319-1.5898h-1.44v3.3599h1.644c1.3524-.0001 2.0279-.4174 2.0279-1.7701z" fill="#fff"/></g><g><path d="m29.1271 42.6064c0 2.6119-1.5495 4.2358-4.7759 4.2358h-2.7842v-8.3882h2.8799c2.8517.0001 4.6802 1.4055 4.6802 4.1524zm-1.4282.0356c0-1.9199-1.1001-2.8799-3.2998-2.8799h-1.416v5.748h1.5718c1.9781.0001 3.144-.9285 3.144-2.8681z" fill="#fff"/></g><g><path d="m32.3668 39.7744v2.3037h3.7197v1.3081h-3.7197v3.4561h-1.416v-8.3882h5.5918l-.0117 1.3203z" fill="#fff"/></g></g></g></svg>