<svg width="30" height="30" viewBox="0 0 30 30" fill="none" xmlns="http://www.w3.org/2000/svg">
<mask id="mask0_215_114" style="mask-type:luminance" maskUnits="userSpaceOnUse" x="0" y="0" width="30" height="30">
<path d="M29.2924 0H0V29.6814H29.2924V0Z" fill="white"/>
</mask>
<g mask="url(#mask0_215_114)">
<path d="M1.14525 11.592C0.789108 11.592 0.437686 11.4237 0.214562 11.108C-0.153594 10.5876 -0.0360244 9.86326 0.477591 9.49021L12.6641 0.635822C12.6666 0.634083 12.6692 0.631909 12.6722 0.63017C13.2523 0.216255 13.935 -0.00244141 14.6464 -0.00244141C15.3579 -0.00244141 16.0405 0.216255 16.6207 0.63017C16.6232 0.631909 16.6262 0.634083 16.6288 0.635822L28.8149 9.48978C29.3285 9.86282 29.446 10.5872 29.0779 11.1076C28.7097 11.628 27.9949 11.7472 27.4813 11.3741L15.2999 2.52409C15.1081 2.38844 14.882 2.3167 14.6464 2.3167C14.4109 2.3167 14.1847 2.38844 13.9929 2.52409L1.81119 11.3746C1.60909 11.5211 1.3761 11.592 1.14525 11.592Z" fill="white"/>
<path d="M23.5714 29.6794H16.9347C16.3026 29.6794 15.7903 29.1603 15.7903 28.5199V23.882C15.7903 23.2429 15.2771 22.7224 14.6459 22.7224C14.0148 22.7224 13.5016 23.2425 13.5016 23.882V28.5199C13.5016 29.1603 12.9892 29.6794 12.3572 29.6794H5.72138C3.82869 29.6794 2.2887 28.119 2.2887 26.2012V15.8015C2.2887 14.6737 2.83106 13.6124 3.73986 12.9615L12.661 6.43585C12.6649 6.43324 12.6683 6.43063 12.6721 6.42802C13.2523 6.01411 13.9349 5.79541 14.6464 5.79541C15.3578 5.79541 16.0405 6.01411 16.6206 6.42802C16.6245 6.43063 16.6279 6.43324 16.6317 6.43585L25.5533 12.9615C26.4617 13.6124 27.004 14.6737 27.004 15.8015V26.2012C27.004 28.119 25.4641 29.6794 23.5714 29.6794ZM18.0791 27.3607H23.5714C24.2021 27.3607 24.7157 26.8407 24.7157 26.2012V15.8015C24.7157 15.4246 24.5342 15.0702 24.23 14.8533C24.2261 14.8507 24.2227 14.8481 24.2188 14.8455L15.299 8.32107C15.1076 8.18586 14.8819 8.11455 14.6464 8.11455C14.4108 8.11455 14.1855 8.18586 13.9937 8.32107L5.07389 14.845C5.07003 14.8476 5.0666 14.8502 5.06274 14.8533C4.75851 15.0702 4.57701 15.4246 4.57701 15.8015V26.2012C4.57701 26.8403 5.0902 27.3607 5.72138 27.3607H11.2137V23.8825C11.2137 21.9646 12.7537 20.4042 14.6464 20.4042C16.5391 20.4042 18.0791 21.9646 18.0791 23.8825V27.3607Z" fill="white"/>
</g>
</svg>
