<svg width="113" height="32" viewBox="0 0 113 32" fill="none" xmlns="http://www.w3.org/2000/svg">
<path d="M8.80897 24.7928L0 0H8.52015L13.5023 16.5766H13.6467L18.6649 0H26.824L18.0512 24.7928H8.80897Z" fill="white"/>
<path d="M28.7129 24.7928V0H36.6915V24.7928H28.7129Z" fill="white"/>
<path d="M57.2219 24.7928L56.1749 21.2973H47.4743L46.4273 24.7928H38.2682L47.3299 0H56.6082L65.6699 24.7928H57.2219ZM49.135 15.7477H54.5142L51.9149 6.91892H51.7705L49.135 15.7477Z" fill="white"/>
<path d="M80.8083 0C82.3487 0 83.7205 0.36036 84.924 1.08108C86.1274 1.77778 87.066 2.75075 87.7399 4C88.4138 5.22523 88.7508 6.60661 88.7508 8.14414V8.61261C88.7508 10.1502 88.4138 11.5435 87.7399 12.7928C87.066 14.042 86.1274 15.027 84.924 15.7477C83.7205 16.4444 82.3487 16.7928 80.8083 16.7928H74.8514V24.7928H66.8728V0H80.8083ZM74.8514 10.991H78.1367C78.9791 10.991 79.6049 10.7748 80.014 10.3423C80.4473 9.90991 80.6639 9.32132 80.6639 8.57658V8.28829C80.6639 7.51952 80.4473 6.93093 80.014 6.52252C79.6049 6.09009 78.9791 5.87387 78.1367 5.87387H74.8514V10.991Z" fill="white"/>
<path d="M105.057 0C106.598 0 107.97 0.36036 109.173 1.08108C110.377 1.77778 111.315 2.75075 111.989 4C112.663 5.22523 113 6.60661 113 8.14414V8.61261C113 10.1502 112.663 11.5435 111.989 12.7928C111.315 14.042 110.377 15.027 109.173 15.7477C107.97 16.4444 106.598 16.7928 105.057 16.7928H99.1006V24.7928H91.122V0H105.057ZM99.1006 10.991H102.386C103.228 10.991 103.854 10.7748 104.263 10.3423C104.696 9.90991 104.913 9.32132 104.913 8.57658V8.28829C104.913 7.51952 104.696 6.93093 104.263 6.52252C103.854 6.09009 103.228 5.87387 102.386 5.87387H99.1006V10.991Z" fill="white"/>
<path d="M8.56838 30.1982C8.56838 29.2031 9.37656 28.3964 10.3735 28.3964H63.0829C64.0798 28.3964 64.888 29.2031 64.888 30.1982C64.888 31.1933 64.0798 32 63.0829 32H10.3735C9.37656 32 8.56838 31.1933 8.56838 30.1982Z" fill="#D4E4FE"/>
<path d="M72.1085 30.1982C72.1085 31.1933 71.3003 32 70.3034 32C69.3064 32 68.4982 31.1933 68.4982 30.1982C68.4982 29.2031 69.3064 28.3964 70.3034 28.3964C71.3003 28.3964 72.1085 29.2031 72.1085 30.1982Z" fill="#F1DED7"/>
<path d="M81.4951 30.1982C81.4951 31.1933 80.6869 32 79.69 32C78.693 32 77.8848 31.1933 77.8848 30.1982C77.8848 29.2031 78.693 28.3964 79.69 28.3964C80.6869 28.3964 81.4951 29.2031 81.4951 30.1982Z" fill="#F1DED7"/>
<path d="M90.8817 30.1982C90.8817 31.1933 90.0735 32 89.0766 32C88.0796 32 87.2715 31.1933 87.2715 30.1982C87.2715 29.2031 88.0796 28.3964 89.0766 28.3964C90.0735 28.3964 90.8817 29.2031 90.8817 30.1982Z" fill="#F1DED7"/>
</svg>
