<svg id="Layer_3" height="512" viewBox="0 0 32 32" width="512" xmlns="http://www.w3.org/2000/svg" data-name="Layer 3"><path fill="#fff" d="m22 14h-12a1 1 0 0 0 0 2h12a1 1 0 0 0 0-2z"/><path fill="#fff" d="m22 19h-12a1 1 0 0 0 0 2h12a1 1 0 0 0 0-2z"/><path fill="#fff" d="m16 24h-6a1 1 0 0 0 0 2h6a1 1 0 0 0 0-2z"/><path fill="#fff" d="m27.891 9.693-8.275-8.276c-.26-.451-.885-.449-6.416-.437-2.788.007-5.571.02-5.566.02a3.854 3.854 0 0 0 -3.85 3.85v22.3a3.854 3.854 0 0 0 3.85 3.85h16.7a3.853 3.853 0 0 0 3.85-3.846c.074-17.094.074-17.094-.293-17.461zm-8.107-5.278 4.986 4.985h-4.986zm6.4 22.735a1.852 1.852 0 0 1 -1.85 1.85h-16.7a1.852 1.852 0 0 1 -1.85-1.85v-22.3a1.853 1.853 0 0 1 1.855-1.85c2.564-.012 5.963-.023 8.315-.023h1.83v7.423a1 1 0 0 0 1 1h7.423c.021 2.627 0 10.372-.023 15.75z"/></svg>
