<?xml version="1.0" encoding="utf-8"?>
<!-- Generator: Adobe Illustrator 28.1.0, SVG Export Plug-In . SVG Version: 6.00 Build 0)  -->
<svg version="1.1" id="svg3039" xmlns:svg="http://www.w3.org/2000/svg"
	 xmlns="http://www.w3.org/2000/svg" xmlns:xlink="http://www.w3.org/1999/xlink" x="0px" y="0px" viewBox="0 0 682.7 682.7"
	 style="enable-background:new 0 0 682.7 682.7;" xml:space="preserve">
<style type="text/css">
	.st0{clip-path:url(#SVGID_00000100362843344733760600000006113466889720425864_);}
	.st1{fill:none;stroke:#000000;stroke-width:40;stroke-linejoin:round;stroke-miterlimit:13.3333;}
	.st2{fill:none;stroke:#000000;stroke-width:40;stroke-linecap:round;stroke-linejoin:round;stroke-miterlimit:13.3333;}
</style>
<g>
	<defs>
		<rect id="SVGID_1_" y="0" width="682.7" height="682.7"/>
	</defs>
	<clipPath id="SVGID_00000077297710460618891270000017282219047681725852_">
		<use xlink:href="#SVGID_1_"  style="overflow:visible;"/>
	</clipPath>
	<g id="g3049" style="clip-path:url(#SVGID_00000077297710460618891270000017282219047681725852_);">
		<g id="g3055" transform="translate(316.25,105.38)">
			<path id="path3057" class="st1" d="M105.4,436.8c0,66.6,53.9,120.5,120.5,120.5h-522.2V-85.4h522.2v401.7
				C159.4,316.3,105.4,370.2,105.4,436.8z"/>
		</g>
		<g id="g3067" transform="translate(75.25,256)">
			<path id="path3069" class="st2" d="M25.1,85.3h160.7"/>
		</g>
		<g id="g3071" transform="translate(256,256)">
			<path id="path3073" class="st2" d="M85.3,85.3h120.5"/>
		</g>
		<g id="g3075" transform="translate(256,436.75)">
			<path id="path3077" class="st2" d="M-155.7-336.4h361.5"/>
		</g>
		<g id="g3079" transform="translate(256,376.5)">
			<path id="path3081" class="st2" d="M-155.7-195.8h361.5"/>
		</g>
		<g id="g3083" transform="translate(256,316.25)">
			<path id="path3085" class="st2" d="M-155.7-55.2h361.5"/>
		</g>
		<g id="g3087" transform="translate(75.25,195.75)">
			<path id="path3089" class="st2" d="M25.1,225.9h241"/>
		</g>
		<g id="g3091" transform="translate(75.25,135.5)">
			<path id="path3093" class="st2" d="M25.1,366.5h241"/>
		</g>
		<g id="g3095" transform="translate(75.25,75.25)">
			<path id="path3097" class="st2" d="M25.1,507.1h241"/>
		</g>
		<g id="g3099" transform="translate(497,105.38)">
			<path id="path3101" class="st1" d="M165.7,436.8c0,66.6-53.9,120.5-120.5,120.5c-66.5,0-120.5-53.9-120.5-120.5
				c0-66.5,53.9-120.5,120.5-120.5C111.7,316.3,165.7,370.2,165.7,436.8z"/>
		</g>
		<g id="g3103" transform="translate(425,87)">
			<path id="path3105" class="st2" d="M141.7,479.7l-24.5-24.5h0"/>
		</g>
		<g id="g3107" transform="translate(406.62,105.38)">
			<path id="path3109" class="st2" d="M135.5,436.8L111,412.3"/>
		</g>
		<g id="g3111" transform="translate(388.25,87)">
			<path id="path3113" class="st2" d="M129.4,479.7l49-49"/>
		</g>
	</g>
</g>
</svg>
