<svg width="26" height="31" viewBox="0 0 26 31" fill="none" xmlns="http://www.w3.org/2000/svg">
<path d="M12.2087 14.5588C14.1254 14.5588 15.7852 13.8714 17.1418 12.5148C18.4978 11.1587 19.1852 9.4994 19.1852 7.5821C19.1852 5.66481 18.4978 4.00606 17.1412 2.64941C15.7852 1.29333 14.1254 0.605957 12.2087 0.605957C10.2921 0.605957 8.63226 1.29333 7.27624 2.64941C5.92021 4.00549 5.2323 5.66538 5.2323 7.5821C5.2323 9.49883 5.92021 11.1587 7.27624 12.5154C8.63283 13.8714 10.2926 14.5588 12.2087 14.5588ZM8.47669 3.84991C9.51705 2.80952 10.7379 2.30318 12.2087 2.30318C13.6796 2.30318 14.9004 2.80895 15.9413 3.84991C16.9817 4.89088 17.488 6.11174 17.488 7.5821C17.488 9.05246 16.9817 10.2739 15.9413 11.3149C14.9004 12.3558 13.6796 12.8616 12.2087 12.8616C10.7379 12.8616 9.51761 12.3553 8.47669 11.3149C7.43577 10.2745 6.93002 9.05303 6.93002 7.5821C6.93002 6.11118 7.43634 4.89088 8.47669 3.84991Z" fill="white"/>
<path d="M25.2292 23.6312C25.1883 23.0722 25.1054 22.4628 24.9835 21.8192C24.8603 21.1705 24.7023 20.5578 24.5122 19.9971C24.3162 19.4179 24.0498 18.846 23.7201 18.2976C23.3785 17.7286 22.9771 17.2334 22.5265 16.8256C22.0553 16.3994 21.4786 16.0566 20.812 15.8062C20.1471 15.5575 19.4106 15.4315 18.6226 15.4315C18.313 15.4315 18.014 15.5513 17.4362 15.9076C17.0803 16.1271 16.6641 16.3809 16.2 16.6615C15.8027 16.9007 15.2651 17.1253 14.6003 17.3281C13.952 17.5263 13.2937 17.6272 12.6442 17.6272C11.9947 17.6272 11.3364 17.5263 10.6881 17.3281C10.0244 17.1253 9.48625 16.9012 9.08958 16.6615C8.62957 16.3837 8.21336 16.1294 7.85222 15.907C7.27498 15.5508 6.97541 15.4309 6.66577 15.4309C5.87777 15.4309 5.14127 15.5569 4.477 15.8062C3.81037 16.056 3.23372 16.3988 2.76186 16.8256C2.31132 17.2334 1.90992 17.7286 1.56831 18.2971C1.23914 18.8455 0.972721 19.4168 0.776756 19.9965C0.587303 20.5566 0.428637 21.17 0.306084 21.8181C0.184124 22.4611 0.101239 23.0705 0.060388 23.6306C0.0201293 24.1784 0 24.7481 0 25.3239C0 26.8211 0.503234 28.0327 1.4949 28.9266C2.47473 29.8088 3.7707 30.2558 5.3473 30.2558H19.9429C21.5189 30.2558 22.8148 29.8088 23.7947 28.9266C24.7869 28.0332 25.2896 26.8211 25.2896 25.3239C25.2896 24.7458 25.2688 24.1762 25.228 23.6301L25.2292 23.6312ZM22.5703 27.7106C21.9232 28.2937 21.0636 28.5766 19.9429 28.5766H5.34789C4.22716 28.5766 3.36752 28.2931 2.72042 27.7106C2.08576 27.1387 1.7773 26.3585 1.7773 25.325C1.7773 24.7879 1.79625 24.2569 1.83355 23.7477C1.87025 23.2481 1.94485 22.6991 2.05556 22.1155C2.16509 21.5391 2.30422 20.9986 2.46999 20.509C2.62866 20.0396 2.84534 19.5747 3.11413 19.1272C3.37048 18.7004 3.66591 18.3346 3.99153 18.0394C4.29584 17.7633 4.68007 17.5376 5.13239 17.3684C5.55096 17.2116 6.02104 17.1259 6.53138 17.113C6.59354 17.1443 6.70426 17.2037 6.88364 17.3146C7.24893 17.5398 7.66987 17.7969 8.13521 18.0775C8.65976 18.394 9.33528 18.6797 10.1428 18.9261C10.9681 19.1787 11.81 19.307 12.6454 19.307C13.4807 19.307 14.3232 19.1787 15.1479 18.9267C15.9561 18.6797 16.6316 18.394 17.1567 18.0775C17.6327 17.7896 18.0418 17.5404 18.4071 17.3146C18.5865 17.2043 18.6972 17.1443 18.7594 17.113C19.2697 17.1259 19.7404 17.2116 20.1589 17.3684C20.6113 17.5376 20.9949 17.7638 21.2998 18.0394C21.6254 18.3341 21.9203 18.7004 22.1772 19.1272C22.446 19.5747 22.6633 20.0396 22.8219 20.5085C22.9877 20.9986 23.1274 21.5391 23.2364 22.1149C23.3471 22.6991 23.4217 23.2486 23.4584 23.7471C23.4963 24.2552 23.5152 24.7856 23.5152 25.3245C23.5152 26.3579 23.2068 27.1382 22.5715 27.7095L22.5703 27.7106Z" fill="white"/>
</svg>
