<?xml version="1.0" encoding="utf-8"?>
<!-- Generator: Adobe Illustrator 28.1.0, SVG Export Plug-In . SVG Version: 6.00 Build 0)  -->
<svg version="1.1" id="Capa_1" xmlns="http://www.w3.org/2000/svg" xmlns:xlink="http://www.w3.org/1999/xlink" x="0px" y="0px"
	 viewBox="0 0 512 512" style="enable-background:new 0 0 512 512;" xml:space="preserve">
<g>
	<g>
		<path d="M315,91H195c-8.3,0-15,6.7-15,15s6.7,15,15,15h120c8.3,0,15-6.7,15-15S323.3,91,315,91z"/>
	</g>
</g>
<g>
	<g>
		<path d="M315,151H195c-8.3,0-15,6.7-15,15s6.7,15,15,15h120c8.3,0,15-6.7,15-15S323.3,151,315,151z"/>
	</g>
</g>
<g>
	<g>
		<path d="M315,211H75c-8.3,0-15,6.7-15,15s6.7,15,15,15h240c8.3,0,15-6.7,15-15S323.3,211,315,211z"/>
	</g>
</g>
<g>
	<g>
		<path d="M260.6,271H75c-8.3,0-15,6.7-15,15s6.7,15,15,15h185.6c8.3,0,15-6.7,15-15S268.9,271,260.6,271z"/>
	</g>
</g>
<g>
	<g>
		<path d="M391,271V45c0-24.9-21.1-45-46-45H135c-3.8,0-7.7,1.5-10.6,4.4l-120,121C1.6,128.2,0,132.1,0,136v331
			c0,24.8,20.2,45,45,45c31.6,0,42.2,0,42.1,0c46,0,136.5,0,303.9,0c66.2,0,121-54.5,121-121C512,324.8,457.7,271,391,271z
			 M120,51.4V121H51L120,51.4z M45,482c-8.3,0-15-6.7-15-15V151h105c8.3,0,15-6.7,15-15V30h195c8.5,0,16,7,16,15v229.7
			c-31.8,8.1-58.7,28.7-74.8,56.3H75c-8.3,0-15,6.7-15,15s6.7,15,15,15h198.8c-2.5,9.6-3.8,19.6-3.8,30H75c-8.3,0-15,6.7-15,15
			s6.7,15,15,15h198.8c6.1,23.5,19.2,44.6,37.9,61H45z M391,482c-49.3,0-91-41.7-91-91c0-49.6,40.8-90,91-90s91,40.4,91,90
			C482,440.3,440.3,482,391,482z"/>
	</g>
</g>
<g>
	<path d="M359.6,432.3c-2.4,0-4.8-0.9-6.7-2.8c-3.7-3.7-3.7-9.6,0-13.3l62.7-62.7c3.7-3.7,9.6-3.7,13.3,0c3.7,3.7,3.7,9.6,0,13.3
		l-62.7,62.7C364.4,431.4,362,432.3,359.6,432.3L359.6,432.3z"/>
	<path d="M422.4,432.3c-2.4,0-4.8-0.9-6.7-2.8L353,366.8c-3.7-3.7-3.7-9.6,0-13.3c3.7-3.7,9.6-3.7,13.3,0l62.7,62.7
		c3.7,3.7,3.7,9.6,0,13.3C427.2,431.4,424.8,432.3,422.4,432.3L422.4,432.3z"/>
</g>
</svg>
