<svg clip-rule="evenodd" fill-rule="evenodd" height="512" stroke-linejoin="round" stroke-miterlimit="2" viewBox="0 0 32 32" width="512" xmlns="http://www.w3.org/2000/svg"><path d="m7.427 8.698h7.93c.414 0 .75-.336.75-.75s-.336-.75-.75-.75h-7.93c-.414 0-.75.336-.75.75s.336.75.75.75z"/><path d="m7.427 14.066h7.93c.414 0 .75-.336.75-.75s-.336-.75-.75-.75h-7.93c-.414 0-.75.336-.75.75s.336.75.75.75z"/><path d="m7.427 19.434h7.93c.414 0 .75-.336.75-.75s-.336-.75-.75-.75h-7.93c-.414 0-.75.336-.75.75s.336.75.75.75z"/><path d="m7.427 24.802h7.93c.414 0 .75-.336.75-.75s-.336-.75-.75-.75h-7.93c-.414 0-.75.336-.75.75s.336.75.75.75z"/><circle cx="18.737" cy="7.948" r=".913"/><circle cx="18.737" cy="13.316" r=".913"/><circle cx="18.737" cy="18.684" r=".913"/><path d="m24.185 17.651c-3.631 0-6.579 2.948-6.579 6.579 0 3.632 2.948 6.58 6.579 6.58s6.579-2.948 6.579-6.58c0-3.631-2.948-6.579-6.579-6.579zm0 1.5c2.803 0 5.079 2.276 5.079 5.079 0 2.804-2.276 5.08-5.079 5.08s-5.079-2.276-5.079-5.08c0-2.803 2.276-5.079 5.079-5.079z"/><path d="m22.944 30.557c.3-.118.491-.417.473-.74-.019-.322-.242-.597-.554-.681-2.163-.583-3.757-2.56-3.757-4.906 0-2.729 2.157-4.959 4.859-5.074.401-.017.718-.348.718-.749v-14.407c0-.729-.29-1.429-.806-1.945-.515-.515-1.215-.805-1.944-.805-3.973 0-12.817 0-16.789 0-.73 0-1.429.29-1.945.805-.515.516-.805 1.216-.805 1.945v24c0 .729.29 1.429.805 1.945.516.515 1.215.805 1.945.805h16.789c.349 0 .692-.067 1.011-.193zm-3.01-1.307h-14.79c-.332 0-.65-.132-.884-.366-.234-.235-.366-.552-.366-.884v-24c0-.332.132-.649.366-.884.234-.234.552-.366.884-.366h16.789c.331 0 .649.132.884.366.234.235.366.552.366.884v13.727c-3.157.484-5.577 3.213-5.577 6.503 0 2.012.904 3.813 2.328 5.02z"/><path d="m24.935 24.716v-2.914c0-.414-.336-.75-.75-.75s-.75.336-.75.75v2.914c0 .414.336.75.75.75s.75-.336.75-.75z"/><path d="m23.81 24.067-1.943 1.122c-.359.206-.482.666-.275 1.024.207.359.666.482 1.025.275l1.943-1.122c.358-.207.481-.666.275-1.025-.207-.358-.667-.481-1.025-.274z"/></svg>